<svg xmlns="http://www.w3.org/2000/svg" viewBox="0 0 480 480" role="img" aria-labelledby="title desc">
  <title id="title">Avatar Placeholder</title>
  <desc id="desc">Abstract avatar placeholder with geophysical contour style background.</desc>
  <defs>
    <linearGradient id="g1" x1="0" y1="0" x2="1" y2="1">
      <stop offset="0%" stop-color="#9fd0f0"/>
      <stop offset="55%" stop-color="#dce8f5"/>
      <stop offset="100%" stop-color="#f5e7d4"/>
    </linearGradient>
    <linearGradient id="g2" x1="0" y1="1" x2="1" y2="0">
      <stop offset="0%" stop-color="#0f5f8f"/>
      <stop offset="100%" stop-color="#d87a0d"/>
    </linearGradient>
  </defs>
  <rect width="480" height="480" fill="url(#g1)"/>
  <g fill="none" stroke="#7ea0b7" stroke-width="2" opacity="0.32">
    <path d="M0 110c65 18 120 18 185 0s120-18 185 0 120 18 185 0"/>
    <path d="M0 170c65 18 120 18 185 0s120-18 185 0 120 18 185 0"/>
    <path d="M0 230c65 18 120 18 185 0s120-18 185 0 120 18 185 0"/>
    <path d="M0 290c65 18 120 18 185 0s120-18 185 0 120 18 185 0"/>
  </g>
  <circle cx="240" cy="190" r="78" fill="url(#g2)" opacity="0.94"/>
  <path d="M108 420c10-88 66-130 132-130s122 42 132 130" fill="url(#g2)" opacity="0.9"/>
  <text x="240" y="454" text-anchor="middle" font-size="24" fill="#1f4059" font-family="Arial, sans-serif">Upload Your Photo</text>
</svg>
